# xmcd
#
# Track frame offsets:
#   150
#   13017
#   27521
#   43959
#   60199
#   72881
#   90684
#   111692
#   127519
#   143302
#   154259
#   173401
#   191843
#   208441
#   225236
#   241254
#   256384
#   271622
#   285979
#   300408
#   319480
#
# Disc length: 4472 seconds
#
# Revision: 0
# Processed by: cddbd v1.5.1PL0 Copyright (c) Steve Scherf et al.
# Submitted via: Media_Universe 3.0
#
DISCID=1b117615
DTITLE=JOE NICHOLS - Revelation/Six Of One, Half Dozen Of The Other
DYEAR=2004
DGENRE=Country
TTITLE0=The Shade
TTITLE1=Singer In A Band
TTITLE2=Don't Ruin It For The Rest Of Us
TTITLE3=I Wish That Wasn't All
TTITLE4=If I Ever Get Her Back
TTITLE5=If Nobody Believed In You
TTITLE6=Farewell Party
TTITLE7=Things Like That (these days)
TTITLE8=Revelation
TTITLE9=Whats A Guy Gotta Do
TTITLE10=No Time To Cry
TTITLE11=Leave The Past Behind
TTITLE12=She Could Care Less
TTITLE13=In Spite Of Myself
TTITLE14=Six Of One Half A Dozen (of the other)
TTITLE15=To Tell You The Truth (i lied)
TTITLE16=Independant Girl
TTITLE17=I Hate The Way I Love You
TTITLE18=Wal-Mart Parking Lot
TTITLE19=Old Cheyenne
TTITLE20=I'm Not That Kind Of Guy
EXTD=
EXTT0=
EXTT1=
EXTT2=
EXTT3=
EXTT4=
EXTT5=
EXTT6=
EXTT7=
EXTT8=
EXTT9=
EXTT10=
EXTT11=
EXTT12=
EXTT13=
EXTT14=
EXTT15=
EXTT16=
EXTT17=
EXTT18=
EXTT19=
EXTT20=
PLAYORDER=
